<svg width="469" height="170" viewBox="0 0 469 170" fill="none" xmlns="http://www.w3.org/2000/svg">
<path fill-rule="evenodd" clip-rule="evenodd" d="M10.3842 90.8296C7.15617 90.7868 4.25096 94.856 4.60604 101.088C5.02568 108.414 11.5247 115.852 11.5247 122.93C11.5247 128.991 -0.106858 135.565 0.000741956 148.021C0.108342 162.211 9.03918 169.999 33.5183 169.999C57.9974 169.999 63.9907 160.707 63.9907 148.627C63.9907 137.514 54.9738 133.795 54.9738 125.486C54.9738 116.749 60.8057 112.766 61.8925 107.876C63.1729 102.088 59.1379 99.4552 56.1574 100.37C53.5104 101.225 54.7155 106.67 45.4834 106.824C41.0503 106.901 37.7792 103.601 37.7792 95.4288C37.7792 87.2562 27.4066 86.3672 26.7825 94.3859C26.5888 96.7624 25.6419 101.345 19.4549 101.37C12.5685 101.379 14.4945 90.9236 10.3842 90.8296Z" fill="white"/>
<path fill-rule="evenodd" clip-rule="evenodd" d="M26.4812 106.593H37.9406L35.95 29.9627H28.461L26.4812 106.593Z" fill="white"/>
<path fill-rule="evenodd" clip-rule="evenodd" d="M43.6542 22.1149C43.0557 17.1876 43.331 12.2178 44.472 7.3513C46.2689 0.161821 43.9663 -3.89027 38.9628 5.41074L26.9762 27.74C26.5027 28.5949 25.7172 28.9881 27.3097 30.7748C27.8944 31.3529 28.2668 32.0481 28.3857 32.7837H36.0146C36.0146 31.775 37.4887 29.0907 40.1787 27.2955C41.8358 26.1841 43.8264 23.6879 43.6542 22.1149Z" fill="white"/>
<path d="M35.9422 7.39968L35.519 8.18565L38.8628 9.32208L39.286 8.5361L35.9422 7.39968Z" fill="white"/>
<path fill-rule="evenodd" clip-rule="evenodd" d="M35.4658 9.0867L34.3037 8.69346C33.3891 8.04375 34.3037 6.37675 35.5196 6.44514L36.671 6.83838C37.1767 7.35131 36.2728 9.02686 35.4658 9.0867Z" fill="white"/>
<path d="M33.9994 11.009L33.576 11.795L36.9196 12.9318L37.343 12.1459L33.9994 11.009Z" fill="white"/>
<path fill-rule="evenodd" clip-rule="evenodd" d="M33.5183 12.7028L32.3562 12.301C31.4416 11.6513 32.3562 9.98431 33.5721 10.0527L34.788 10.4716C35.2291 10.9589 34.3253 12.6344 33.5183 12.7028Z" fill="white"/>
<path d="M32.0596 14.62L31.636 15.4059L34.9793 16.5432L35.4029 15.7574L32.0596 14.62Z" fill="white"/>
<path fill-rule="evenodd" clip-rule="evenodd" d="M31.5599 16.3104L30.4086 15.9171C29.494 15.2674 30.4086 13.5919 31.6137 13.6688L32.7758 14.062C33.2923 14.5664 32.3885 16.242 31.5599 16.3104Z" fill="white"/>
<path d="M30.1026 18.2249L29.6796 19.011L33.0236 20.147L33.4466 19.3609L30.1026 18.2249Z" fill="white"/>
<path fill-rule="evenodd" clip-rule="evenodd" d="M29.6339 19.9179L28.4718 19.5247C27.5572 18.875 28.4718 17.1994 29.6877 17.2764L30.839 17.6696C31.3447 18.1654 30.4839 19.8752 29.6339 19.9179Z" fill="white"/>
<path d="M28.1776 21.8307L27.7543 22.6166L31.0978 23.7535L31.5212 22.9676L28.1776 21.8307Z" fill="white"/>
<path fill-rule="evenodd" clip-rule="evenodd" d="M27.6863 23.5255L26.5242 23.1322C25.6096 22.4825 26.5242 20.807 27.7401 20.8839L28.9022 21.2772C29.4079 21.7815 28.4933 23.4656 27.6863 23.5255Z" fill="white"/>
<path d="M26.2273 25.442L25.804 26.2279L29.1475 27.3648L29.5709 26.5789L26.2273 25.442Z" fill="white"/>
<path fill-rule="evenodd" clip-rule="evenodd" d="M25.7495 27.1331L24.5875 26.7142C23.6729 26.0645 24.5875 24.3889 25.7926 24.4659L26.9547 24.8591C27.4604 25.3977 26.5565 27.0732 25.7495 27.1331Z" fill="white"/>
<path d="M136.398 50.1818V62.3523H104.83V120H90.0682V50.1818H136.398ZM154.014 100.841L172.866 67.6364H187.185V120H173.344V86.6932L154.56 120H140.139V67.6364H154.014V100.841ZM193.568 79.0568V67.6364H241.023V79.0568H224.148V120H210.307V79.0568H193.568ZM262.884 120.989C259.543 120.989 256.565 120.409 253.952 119.25C251.338 118.068 249.27 116.33 247.747 114.034C246.247 111.716 245.497 108.83 245.497 105.375C245.497 102.466 246.031 100.023 247.099 98.0455C248.168 96.0682 249.622 94.4773 251.463 93.2727C253.304 92.0682 255.395 91.1591 257.736 90.5455C260.099 89.9318 262.577 89.5 265.168 89.25C268.213 88.9318 270.668 88.6364 272.531 88.3636C274.395 88.0682 275.747 87.6364 276.588 87.0682C277.429 86.5 277.849 85.6591 277.849 84.5455V84.3409C277.849 82.1818 277.168 80.5114 275.804 79.3295C274.463 78.1477 272.554 77.5568 270.077 77.5568C267.463 77.5568 265.384 78.1364 263.838 79.2955C262.293 80.4318 261.27 81.8636 260.77 83.5909L247.338 82.5C248.02 79.3182 249.361 76.5682 251.361 74.25C253.361 71.9091 255.94 70.1136 259.099 68.8636C262.281 67.5909 265.963 66.9545 270.145 66.9545C273.054 66.9545 275.838 67.2955 278.497 67.9773C281.179 68.6591 283.554 69.7159 285.622 71.1477C287.713 72.5795 289.361 74.4205 290.565 76.6705C291.77 78.8977 292.372 81.5682 292.372 84.6818V120H278.599V112.739H278.19C277.349 114.375 276.224 115.818 274.815 117.068C273.406 118.295 271.713 119.261 269.736 119.966C267.759 120.648 265.474 120.989 262.884 120.989ZM267.043 110.966C269.179 110.966 271.065 110.545 272.702 109.705C274.338 108.841 275.622 107.682 276.554 106.227C277.486 104.773 277.952 103.125 277.952 101.284V95.7273C277.497 96.0227 276.872 96.2955 276.077 96.5455C275.304 96.7727 274.429 96.9886 273.452 97.1932C272.474 97.375 271.497 97.5455 270.52 97.7045C269.543 97.8409 268.656 97.9659 267.861 98.0795C266.156 98.3295 264.668 98.7273 263.395 99.2727C262.122 99.8182 261.134 100.557 260.429 101.489C259.724 102.398 259.372 103.534 259.372 104.898C259.372 106.875 260.088 108.386 261.52 109.432C262.974 110.455 264.815 110.966 267.043 110.966Z" fill="white"/>
<path d="M303.912 120V50.1818H331.457C336.753 50.1818 341.264 51.1932 344.991 53.2159C348.719 55.2159 351.56 58 353.514 61.5682C355.491 65.1136 356.48 69.2045 356.48 73.8409C356.48 78.4773 355.48 82.5682 353.48 86.1136C351.48 89.6591 348.582 92.4205 344.787 94.3977C341.014 96.375 336.446 97.3636 331.082 97.3636H313.526V85.5341H328.696C331.537 85.5341 333.878 85.0455 335.719 84.0682C337.582 83.0682 338.969 81.6932 339.878 79.9432C340.81 78.1705 341.276 76.1364 341.276 73.8409C341.276 71.5227 340.81 69.5 339.878 67.7727C338.969 66.0227 337.582 64.6705 335.719 63.7159C333.855 62.7386 331.491 62.25 328.628 62.25H318.673V120H303.912ZM370.04 120H354.222L378.324 50.1818H397.347L421.415 120H405.597L388.108 66.1364H387.562L370.04 120ZM369.051 92.5568H406.415V104.08H369.051V92.5568Z" fill="#E99401"/>
<path d="M91.2642 141.455H95.0568L99.0625 151.227H99.233L103.239 141.455H107.031V156H104.048V146.533H103.928L100.163 155.929H98.1321L94.3679 146.497H94.2472V156H91.2642V141.455ZM112.619 156.206C111.923 156.206 111.303 156.085 110.758 155.844C110.214 155.598 109.783 155.235 109.466 154.757C109.153 154.274 108.997 153.673 108.997 152.953C108.997 152.347 109.108 151.838 109.331 151.426C109.553 151.014 109.856 150.683 110.24 150.432C110.623 150.181 111.059 149.991 111.547 149.864C112.039 149.736 112.555 149.646 113.095 149.594C113.729 149.527 114.241 149.466 114.629 149.409C115.017 149.348 115.299 149.258 115.474 149.139C115.649 149.021 115.737 148.846 115.737 148.614V148.571C115.737 148.121 115.595 147.773 115.311 147.527C115.031 147.281 114.634 147.158 114.118 147.158C113.573 147.158 113.14 147.278 112.818 147.52C112.496 147.757 112.283 148.055 112.179 148.415L109.38 148.188C109.522 147.525 109.802 146.952 110.218 146.469C110.635 145.981 111.172 145.607 111.831 145.347C112.493 145.081 113.261 144.949 114.132 144.949C114.738 144.949 115.318 145.02 115.872 145.162C116.431 145.304 116.925 145.524 117.356 145.822C117.792 146.121 118.135 146.504 118.386 146.973C118.637 147.437 118.762 147.993 118.762 148.642V156H115.893V154.487H115.808C115.633 154.828 115.398 155.129 115.105 155.389C114.811 155.645 114.458 155.846 114.047 155.993C113.635 156.135 113.159 156.206 112.619 156.206ZM113.485 154.118C113.931 154.118 114.324 154.03 114.664 153.855C115.005 153.675 115.273 153.434 115.467 153.131C115.661 152.828 115.758 152.484 115.758 152.101V150.943C115.663 151.005 115.533 151.062 115.368 151.114C115.207 151.161 115.024 151.206 114.821 151.249C114.617 151.286 114.413 151.322 114.21 151.355C114.006 151.384 113.822 151.41 113.656 151.433C113.301 151.485 112.991 151.568 112.725 151.682C112.46 151.795 112.254 151.949 112.108 152.143C111.961 152.333 111.887 152.57 111.887 152.854C111.887 153.266 112.037 153.58 112.335 153.798C112.638 154.011 113.021 154.118 113.485 154.118ZM128.581 145.091V147.47H124.05V156H121.11V145.091H128.581ZM133.146 156.206C132.45 156.206 131.83 156.085 131.286 155.844C130.741 155.598 130.31 155.235 129.993 154.757C129.68 154.274 129.524 153.673 129.524 152.953C129.524 152.347 129.635 151.838 129.858 151.426C130.08 151.014 130.384 150.683 130.767 150.432C131.151 150.181 131.586 149.991 132.074 149.864C132.566 149.736 133.082 149.646 133.622 149.594C134.257 149.527 134.768 149.466 135.156 149.409C135.545 149.348 135.826 149.258 136.001 149.139C136.177 149.021 136.264 148.846 136.264 148.614V148.571C136.264 148.121 136.122 147.773 135.838 147.527C135.559 147.281 135.161 147.158 134.645 147.158C134.1 147.158 133.667 147.278 133.345 147.52C133.023 147.757 132.81 148.055 132.706 148.415L129.908 148.188C130.05 147.525 130.329 146.952 130.746 146.469C131.162 145.981 131.7 145.607 132.358 145.347C133.021 145.081 133.788 144.949 134.659 144.949C135.265 144.949 135.845 145.02 136.399 145.162C136.958 145.304 137.453 145.524 137.884 145.822C138.319 146.121 138.662 146.504 138.913 146.973C139.164 147.437 139.29 147.993 139.29 148.642V156H136.42V154.487H136.335C136.16 154.828 135.926 155.129 135.632 155.389C135.339 155.645 134.986 155.846 134.574 155.993C134.162 156.135 133.686 156.206 133.146 156.206ZM134.013 154.118C134.458 154.118 134.851 154.03 135.192 153.855C135.533 153.675 135.8 153.434 135.994 153.131C136.188 152.828 136.286 152.484 136.286 152.101V150.943C136.191 151.005 136.061 151.062 135.895 151.114C135.734 151.161 135.552 151.206 135.348 151.249C135.144 151.286 134.941 151.322 134.737 151.355C134.534 151.384 134.349 151.41 134.183 151.433C133.828 151.485 133.518 151.568 133.253 151.682C132.988 151.795 132.782 151.949 132.635 152.143C132.488 152.333 132.415 152.57 132.415 152.854C132.415 153.266 132.564 153.58 132.862 153.798C133.165 154.011 133.549 154.118 134.013 154.118ZM141.076 152.911H144.009C144.023 153.27 144.184 153.554 144.492 153.763C144.8 153.971 145.198 154.075 145.685 154.075C146.178 154.075 146.592 153.962 146.928 153.734C147.264 153.502 147.433 153.171 147.433 152.74C147.433 152.475 147.366 152.245 147.234 152.051C147.101 151.852 146.916 151.696 146.68 151.582C146.443 151.469 146.168 151.412 145.856 151.412H144.286V149.43H145.856C146.325 149.43 146.684 149.321 146.935 149.104C147.191 148.886 147.319 148.614 147.319 148.287C147.319 147.918 147.186 147.622 146.921 147.399C146.661 147.172 146.308 147.058 145.863 147.058C145.413 147.058 145.039 147.16 144.741 147.364C144.447 147.562 144.296 147.823 144.286 148.145H141.367C141.377 147.491 141.573 146.926 141.957 146.447C142.345 145.969 142.866 145.6 143.519 145.339C144.177 145.079 144.914 144.949 145.728 144.949C146.618 144.949 147.385 145.074 148.029 145.325C148.678 145.571 149.175 145.924 149.521 146.384C149.871 146.843 150.046 147.39 150.046 148.024C150.046 148.602 149.857 149.085 149.478 149.473C149.099 149.861 148.569 150.138 147.887 150.304V150.418C148.337 150.446 148.744 150.567 149.109 150.78C149.473 150.993 149.764 151.286 149.982 151.661C150.2 152.03 150.309 152.468 150.309 152.974C150.309 153.652 150.11 154.232 149.712 154.714C149.319 155.197 148.775 155.569 148.079 155.83C147.388 156.085 146.594 156.213 145.7 156.213C144.828 156.213 144.047 156.088 143.356 155.837C142.669 155.581 142.122 155.207 141.715 154.714C141.313 154.222 141.1 153.621 141.076 152.911ZM155.055 152.009L158.983 145.091H161.966V156H159.082V149.061L155.169 156H152.164V145.091H155.055V152.009ZM171.983 149.338V151.717H166.287V149.338H171.983ZM167.282 145.091V156H164.391V145.091H167.282ZM173.88 145.091V156H171.01V145.091H173.88ZM187.305 152.655L190.259 145.091H192.56L188.306 156H186.296L182.141 145.091H184.435L187.305 152.655ZM183.746 145.091V156H180.856V145.091H183.746ZM191.012 156V145.091H193.867V156H191.012ZM197.685 160.091C197.301 160.091 196.941 160.06 196.605 159.999C196.274 159.942 195.999 159.868 195.781 159.778L196.463 157.52C196.818 157.629 197.138 157.688 197.422 157.697C197.711 157.707 197.959 157.641 198.168 157.499C198.381 157.357 198.554 157.115 198.686 156.774L198.864 156.312L194.95 145.091H198.132L200.391 153.102H200.504L202.784 145.091H205.987L201.747 157.179C201.544 157.766 201.267 158.277 200.916 158.713C200.571 159.153 200.133 159.492 199.602 159.729C199.072 159.97 198.433 160.091 197.685 160.091ZM206.974 152.911H209.908C209.922 153.27 210.083 153.554 210.391 153.763C210.698 153.971 211.096 154.075 211.584 154.075C212.076 154.075 212.491 153.962 212.827 153.734C213.163 153.502 213.331 153.171 213.331 152.74C213.331 152.475 213.265 152.245 213.132 152.051C213 151.852 212.815 151.696 212.578 151.582C212.341 151.469 212.067 151.412 211.754 151.412H210.185V149.43H211.754C212.223 149.43 212.583 149.321 212.834 149.104C213.089 148.886 213.217 148.614 213.217 148.287C213.217 147.918 213.085 147.622 212.82 147.399C212.559 147.172 212.206 147.058 211.761 147.058C211.312 147.058 210.938 147.16 210.639 147.364C210.346 147.562 210.194 147.823 210.185 148.145H207.266C207.275 147.491 207.472 146.926 207.855 146.447C208.243 145.969 208.764 145.6 209.418 145.339C210.076 145.079 210.812 144.949 211.626 144.949C212.517 144.949 213.284 145.074 213.928 145.325C214.576 145.571 215.073 145.924 215.419 146.384C215.769 146.843 215.945 147.39 215.945 148.024C215.945 148.602 215.755 149.085 215.376 149.473C214.998 149.861 214.467 150.138 213.786 150.304V150.418C214.235 150.446 214.643 150.567 215.007 150.78C215.372 150.993 215.663 151.286 215.881 151.661C216.098 152.03 216.207 152.468 216.207 152.974C216.207 153.652 216.009 154.232 215.611 154.714C215.218 155.197 214.673 155.569 213.977 155.83C213.286 156.085 212.493 156.213 211.598 156.213C210.727 156.213 209.946 156.088 209.254 155.837C208.568 155.581 208.021 155.207 207.614 154.714C207.211 154.222 206.998 153.621 206.974 152.911ZM219.959 148.443H223.219C224.663 148.443 225.79 148.789 226.6 149.48C227.409 150.167 227.814 151.085 227.814 152.236C227.814 152.984 227.632 153.642 227.267 154.21C226.903 154.774 226.377 155.214 225.691 155.531C225.004 155.844 224.18 156 223.219 156H218.063V145.091H220.953V153.621H223.219C223.726 153.621 224.142 153.493 224.469 153.237C224.796 152.982 224.962 152.655 224.966 152.257C224.962 151.836 224.796 151.492 224.469 151.227C224.142 150.957 223.726 150.822 223.219 150.822H219.959V148.443ZM228.986 156V145.091H232.012V156H228.986ZM234.43 156V145.091H237.456V149.324H238.308L241.277 145.091H244.828L240.971 150.503L244.87 156H241.277L238.585 152.129H237.456V156H234.43ZM249.26 156.206C248.564 156.206 247.943 156.085 247.399 155.844C246.854 155.598 246.423 155.235 246.106 154.757C245.794 154.274 245.637 153.673 245.637 152.953C245.637 152.347 245.749 151.838 245.971 151.426C246.194 151.014 246.497 150.683 246.88 150.432C247.264 150.181 247.699 149.991 248.187 149.864C248.68 149.736 249.196 149.646 249.735 149.594C250.37 149.527 250.881 149.466 251.27 149.409C251.658 149.348 251.94 149.258 252.115 149.139C252.29 149.021 252.377 148.846 252.377 148.614V148.571C252.377 148.121 252.235 147.773 251.951 147.527C251.672 147.281 251.274 147.158 250.758 147.158C250.214 147.158 249.78 147.278 249.458 147.52C249.136 147.757 248.923 148.055 248.819 148.415L246.021 148.188C246.163 147.525 246.442 146.952 246.859 146.469C247.276 145.981 247.813 145.607 248.471 145.347C249.134 145.081 249.901 144.949 250.772 144.949C251.378 144.949 251.958 145.02 252.512 145.162C253.071 145.304 253.566 145.524 253.997 145.822C254.432 146.121 254.776 146.504 255.027 146.973C255.278 147.437 255.403 147.993 255.403 148.642V156H252.534V154.487H252.449C252.273 154.828 252.039 155.129 251.745 155.389C251.452 155.645 251.099 155.846 250.687 155.993C250.275 156.135 249.799 156.206 249.26 156.206ZM250.126 154.118C250.571 154.118 250.964 154.03 251.305 153.855C251.646 153.675 251.913 153.434 252.108 153.131C252.302 152.828 252.399 152.484 252.399 152.101V150.943C252.304 151.005 252.174 151.062 252.008 151.114C251.847 151.161 251.665 151.206 251.461 151.249C251.258 151.286 251.054 151.322 250.85 151.355C250.647 151.384 250.462 151.41 250.297 151.433C249.941 151.485 249.631 151.568 249.366 151.682C249.101 151.795 248.895 151.949 248.748 152.143C248.601 152.333 248.528 152.57 248.528 152.854C248.528 153.266 248.677 153.58 248.975 153.798C249.279 154.011 249.662 154.118 250.126 154.118ZM257.111 156L257.097 153.599H257.459C257.715 153.599 257.935 153.538 258.12 153.415C258.309 153.287 258.465 153.081 258.588 152.797C258.712 152.513 258.809 152.136 258.88 151.668C258.951 151.194 258.998 150.612 259.022 149.92L259.199 145.091H267.495V156H264.611V147.47H261.919L261.749 150.801C261.706 151.715 261.595 152.501 261.415 153.159C261.24 153.817 260.996 154.357 260.684 154.778C260.371 155.195 259.995 155.503 259.554 155.702C259.114 155.901 258.603 156 258.02 156H257.111ZM271.737 148.443H274.996C276.441 148.443 277.567 148.789 278.377 149.48C279.187 150.167 279.592 151.085 279.592 152.236C279.592 152.984 279.409 153.642 279.045 154.21C278.68 154.774 278.155 155.214 277.468 155.531C276.781 155.844 275.958 156 274.996 156H269.84V145.091H272.731V153.621H274.996C275.503 153.621 275.92 153.493 276.246 153.237C276.573 152.982 276.739 152.655 276.744 152.257C276.739 151.836 276.573 151.492 276.246 151.227C275.92 150.957 275.503 150.822 274.996 150.822H271.737V148.443ZM289.19 149.338V151.717H283.494V149.338H289.19ZM284.489 145.091V156H281.598V145.091H284.489ZM291.087 145.091V156H288.217V145.091H291.087ZM295.33 148.443H298.59C300.034 148.443 301.161 148.789 301.971 149.48C302.781 150.167 303.185 151.085 303.185 152.236C303.185 152.984 303.003 153.642 302.638 154.21C302.274 154.774 301.748 155.214 301.062 155.531C300.375 155.844 299.551 156 298.59 156H293.434V145.091H296.325V153.621H298.59C299.097 153.621 299.513 153.493 299.84 153.237C300.167 152.982 300.333 152.655 300.337 152.257C300.333 151.836 300.167 151.492 299.84 151.227C299.513 150.957 299.097 150.822 298.59 150.822H295.33V148.443ZM304.357 156V145.091H307.383V156H304.357ZM312.33 145.091L314.332 148.905L316.385 145.091H319.489L316.328 150.545L319.574 156H316.484L314.332 152.229L312.216 156H309.091L312.33 150.545L309.205 145.091H312.33ZM328.805 152.009L332.733 145.091H335.716V156H332.832V149.061L328.919 156H325.914V145.091H328.805V152.009ZM345.733 149.338V151.717H340.037V149.338H345.733ZM341.032 145.091V156H338.141V145.091H341.032ZM347.63 145.091V156H344.76V145.091H347.63ZM354.906 156.213C353.788 156.213 352.827 155.976 352.022 155.503C351.222 155.025 350.607 154.362 350.176 153.514C349.75 152.667 349.537 151.691 349.537 150.588C349.537 149.471 349.752 148.491 350.183 147.648C350.618 146.8 351.236 146.14 352.037 145.666C352.837 145.188 353.788 144.949 354.892 144.949C355.843 144.949 356.677 145.122 357.392 145.467C358.107 145.813 358.672 146.298 359.089 146.923C359.506 147.548 359.735 148.282 359.778 149.125H356.923C356.842 148.58 356.629 148.143 356.284 147.811C355.943 147.475 355.495 147.307 354.941 147.307C354.473 147.307 354.063 147.435 353.713 147.69C353.367 147.941 353.097 148.308 352.903 148.791C352.709 149.274 352.612 149.859 352.612 150.545C352.612 151.241 352.707 151.833 352.896 152.321C353.09 152.809 353.362 153.18 353.713 153.436C354.063 153.692 354.473 153.82 354.941 153.82C355.287 153.82 355.597 153.749 355.872 153.607C356.151 153.464 356.381 153.259 356.561 152.989C356.745 152.714 356.866 152.385 356.923 152.001H359.778C359.731 152.835 359.503 153.569 359.096 154.203C358.694 154.833 358.137 155.325 357.427 155.68C356.717 156.036 355.877 156.213 354.906 156.213ZM360.971 147.47V145.091H370.858V147.47H367.342V156H364.458V147.47H360.971ZM372.692 160.091V145.091H375.675V146.923H375.81C375.942 146.63 376.134 146.331 376.385 146.028C376.641 145.721 376.972 145.465 377.379 145.261C377.791 145.053 378.303 144.949 378.913 144.949C379.709 144.949 380.443 145.157 381.115 145.574C381.787 145.986 382.325 146.608 382.727 147.442C383.13 148.27 383.331 149.31 383.331 150.56C383.331 151.777 383.134 152.804 382.741 153.642C382.353 154.475 381.823 155.107 381.151 155.538C380.483 155.964 379.735 156.178 378.906 156.178C378.319 156.178 377.82 156.08 377.408 155.886C377 155.692 376.667 155.448 376.406 155.155C376.146 154.857 375.947 154.556 375.81 154.253H375.717V160.091H372.692ZM375.653 150.545C375.653 151.194 375.743 151.76 375.923 152.243C376.103 152.726 376.364 153.102 376.705 153.372C377.045 153.637 377.46 153.77 377.947 153.77C378.44 153.77 378.857 153.635 379.197 153.365C379.538 153.09 379.796 152.712 379.972 152.229C380.152 151.741 380.241 151.18 380.241 150.545C380.241 149.916 380.154 149.362 379.979 148.884C379.804 148.405 379.545 148.031 379.205 147.761C378.864 147.491 378.445 147.357 377.947 147.357C377.455 147.357 377.038 147.487 376.697 147.747C376.361 148.008 376.103 148.377 375.923 148.855C375.743 149.333 375.653 149.897 375.653 150.545ZM386.864 160.091C386.481 160.091 386.121 160.06 385.785 159.999C385.453 159.942 385.179 159.868 384.961 159.778L385.643 157.52C385.998 157.629 386.317 157.688 386.602 157.697C386.89 157.707 387.139 157.641 387.347 157.499C387.56 157.357 387.733 157.115 387.866 156.774L388.043 156.312L384.13 145.091H387.312L389.57 153.102H389.684L391.964 145.091H395.167L390.927 157.179C390.723 157.766 390.446 158.277 390.096 158.713C389.75 159.153 389.312 159.492 388.782 159.729C388.252 159.97 387.612 160.091 386.864 160.091ZM403.164 152.655L406.119 145.091H408.42L404.165 156H402.156L398.001 145.091H400.295L403.164 152.655ZM399.606 145.091V156H396.715V145.091H399.606ZM406.871 156V145.091H409.727V156H406.871ZM417.038 156.213C415.916 156.213 414.95 155.986 414.141 155.531C413.336 155.072 412.715 154.423 412.28 153.585C411.844 152.742 411.626 151.746 411.626 150.595C411.626 149.473 411.844 148.488 412.28 147.641C412.715 146.793 413.329 146.133 414.119 145.659C414.915 145.186 415.848 144.949 416.918 144.949C417.637 144.949 418.307 145.065 418.928 145.297C419.553 145.524 420.097 145.867 420.561 146.327C421.03 146.786 421.394 147.364 421.655 148.06C421.915 148.751 422.045 149.561 422.045 150.489V151.32H412.834V149.445H419.197C419.197 149.009 419.103 148.623 418.913 148.287C418.724 147.951 418.461 147.688 418.125 147.499C417.794 147.304 417.408 147.207 416.967 147.207C416.508 147.207 416.101 147.314 415.746 147.527C415.395 147.735 415.121 148.017 414.922 148.372C414.723 148.723 414.621 149.113 414.616 149.544V151.327C414.616 151.866 414.716 152.333 414.915 152.726C415.118 153.119 415.405 153.422 415.774 153.635C416.143 153.848 416.581 153.955 417.088 153.955C417.424 153.955 417.732 153.907 418.011 153.812C418.291 153.718 418.53 153.576 418.729 153.386C418.928 153.197 419.079 152.965 419.183 152.69L421.982 152.875C421.839 153.547 421.548 154.134 421.108 154.636C420.672 155.134 420.109 155.522 419.418 155.801C418.731 156.076 417.938 156.213 417.038 156.213ZM431.612 149.338V151.717H425.916V149.338H431.612ZM426.911 145.091V156H424.02V145.091H426.911ZM433.509 145.091V156H430.639V145.091H433.509ZM434.76 147.47V145.091H444.647V147.47H441.131V156H438.248V147.47H434.76ZM451.019 156.213C449.916 156.213 448.962 155.979 448.157 155.51C447.357 155.036 446.739 154.378 446.303 153.536C445.868 152.688 445.65 151.705 445.65 150.588C445.65 149.461 445.868 148.476 446.303 147.634C446.739 146.786 447.357 146.128 448.157 145.659C448.962 145.186 449.916 144.949 451.019 144.949C452.122 144.949 453.074 145.186 453.874 145.659C454.679 146.128 455.299 146.786 455.735 147.634C456.171 148.476 456.388 149.461 456.388 150.588C456.388 151.705 456.171 152.688 455.735 153.536C455.299 154.378 454.679 155.036 453.874 155.51C453.074 155.979 452.122 156.213 451.019 156.213ZM451.033 153.869C451.535 153.869 451.954 153.727 452.29 153.443C452.627 153.154 452.88 152.761 453.05 152.264C453.226 151.767 453.313 151.201 453.313 150.567C453.313 149.932 453.226 149.366 453.05 148.869C452.88 148.372 452.627 147.979 452.29 147.69C451.954 147.402 451.535 147.257 451.033 147.257C450.527 147.257 450.101 147.402 449.755 147.69C449.414 147.979 449.156 148.372 448.981 148.869C448.81 149.366 448.725 149.932 448.725 150.567C448.725 151.201 448.81 151.767 448.981 152.264C449.156 152.761 449.414 153.154 449.755 153.443C450.101 153.727 450.527 153.869 451.033 153.869ZM458.356 156V145.091H463.008C464.353 145.091 465.415 145.347 466.197 145.858C466.978 146.369 467.369 147.096 467.369 148.038C467.369 148.63 467.148 149.123 466.708 149.516C466.268 149.909 465.657 150.174 464.876 150.311C465.529 150.358 466.085 150.508 466.545 150.759C467.009 151.005 467.362 151.324 467.603 151.717C467.849 152.11 467.972 152.546 467.972 153.024C467.972 153.644 467.807 154.177 467.475 154.622C467.148 155.067 466.668 155.408 466.033 155.645C465.404 155.882 464.634 156 463.725 156H458.356ZM461.175 153.734H463.725C464.147 153.734 464.476 153.635 464.712 153.436C464.954 153.232 465.075 152.955 465.075 152.605C465.075 152.217 464.954 151.911 464.712 151.689C464.476 151.466 464.147 151.355 463.725 151.355H461.175V153.734ZM461.175 149.58H463.072C463.375 149.58 463.633 149.537 463.846 149.452C464.064 149.362 464.229 149.234 464.343 149.068C464.461 148.902 464.521 148.706 464.521 148.479C464.521 148.143 464.386 147.88 464.116 147.69C463.846 147.501 463.477 147.406 463.008 147.406H461.175V149.58Z" fill="white"/>
</svg>
